<?xml version="1.0" encoding="UTF-8"?>
<svg width="40px" height="40px" viewBox="0 0 40 40" version="1.1" xmlns="http://www.w3.org/2000/svg" xmlns:xlink="http://www.w3.org/1999/xlink">
    <title>Icon/Icon_Approval@2x</title>
    <defs>
        <path d="M19.7152238,7.68369627 L11.0461667,13.3359378 C10.7142178,13.5523691 10.2857822,13.5523691 9.95383333,13.3359378 L1.28477625,7.68369627 C0.822140274,7.38205675 0.691626866,6.76248905 0.99326639,6.29985307 C1.06913474,6.1834909 1.16841408,6.08421157 1.28477625,6.00834322 L9.95383333,0.356101697 C10.2857822,0.139670402 10.7142178,0.139670402 11.0461667,0.356101697 L19.7152238,6.00834322 C20.1778597,6.30998274 20.3083731,6.92955044 20.0067336,7.39218642 C19.9308653,7.50854859 19.8315859,7.60782792 19.7152238,7.68369627 Z" id="path-1"></path>
        <mask id="mask-2" maskContentUnits="userSpaceOnUse" maskUnits="objectBoundingBox" x="0" y="0" width="21" height="13.6920395" fill="white">
            <use xlink:href="#path-1"></use>
        </mask>
    </defs>
    <g id="Icon/Icon_Approval" stroke="none" stroke-width="1" fill="none" fill-rule="evenodd">
        <g id="Group-11">
            <path d="M20,40 C31.045695,40 40,31.045695 40,20 C40,8.954305 31.045695,0 20,0 C8.954305,0 0,8.954305 0,20 C0,31.045695 8.954305,40 20,40 Z" id="Ellipse-2" fill="#EBDFFF"></path>
            <g id="Group-1" transform="translate(9.000000, 10.000000)">
                <use id="Rectangle-4" stroke="#5300DA" mask="url(#mask-2)" stroke-width="4" stroke-dasharray="0,0" fill-rule="nonzero" xlink:href="#path-1"></use>
                <path d="M18.1380078,8.71325684 L19.7171769,9.74271822 C20.1798129,10.0443577 20.3103263,10.6639254 20.0086867,11.1265614 C19.9328184,11.2429236 19.833539,11.3422029 19.7171769,11.4180713 L11.0481198,17.0703128 C10.7161709,17.2867441 10.2877353,17.2867441 9.95578645,17.0703128 L1.28672937,11.4180713 C0.824093399,11.1164317 0.693579991,10.496864 0.995219515,10.0342281 C1.07108787,9.9178659 1.1703672,9.81858657 1.28672937,9.74271822 L2.86500781,8.71325684 L9.95578645,13.3359378 C10.2508521,13.5283212 10.6221542,13.5496971 10.9341613,13.4000656 L11.0481198,13.3359378 L18.1380078,8.71325684 Z" id="Subtract" fill="#5300DA"></path>
                <path d="M18.1380078,12.4476318 L19.7171769,13.4770932 C20.1798129,13.7787327 20.3103263,14.3983004 20.0086867,14.8609364 C19.9328184,14.9772986 19.833539,15.0765779 19.7171769,15.1524463 L11.0481198,20.8046878 C10.7161709,21.0211191 10.2877353,21.0211191 9.95578645,20.8046878 L1.28672937,15.1524463 C0.824093399,14.8508067 0.693579991,14.231239 0.995219515,13.7686031 C1.07108787,13.6522409 1.1703672,13.5529616 1.28672937,13.4770932 L2.86500781,12.4476318 L9.95578645,17.0703128 C10.2508521,17.2626962 10.6221542,17.2840721 10.9341613,17.1344406 L11.0481198,17.0703128 L18.1380078,12.4476318 Z" id="Subtract" fill="#5300DA"></path>
            </g>
        </g>
    </g>
</svg>