<?xml version="1.0" encoding="UTF-8"?>
<svg width="40px" height="41px" viewBox="0 0 40 41" version="1.1" xmlns="http://www.w3.org/2000/svg" xmlns:xlink="http://www.w3.org/1999/xlink">
    <title>Group 16</title>
    <g id="Symbol" stroke="none" stroke-width="1" fill="none" fill-rule="evenodd">
        <g id="Group-16">
            <ellipse id="Oval" stroke="#F2F2F2" fill="#448998" cx="20" cy="20.5" rx="19.5" ry="20"></ellipse>
            <g id="Group-35-Copy" transform="translate(8.000000, 8.000000)" fill="#FFFFFF">
                <path d="M6.25,3.74999993 L6.25,5 L5,5 C3.61928821,5 2.5,6.11928791 2.5,7.5 L2.5,20 C2.5,21.3807118 3.61928821,22.5 5,22.5 L20,22.5 C21.3807118,22.5 22.5,21.3807118 22.5,20 L22.5,7.5 C22.5,6.11928821 21.3807118,5 20,5 L18.75,5 L18.75,3.75 C18.75,3.0596441 18.1903565,2.5 17.5,2.5 C16.8096435,2.5 16.25,3.05964403 16.25,3.74999993 L16.25,5 L8.75,5 L8.75,3.75 C8.75,3.0596441 8.1903559,2.5 7.5,2.5 C6.8096441,2.5 6.25,3.05964403 6.25,3.74999993 Z M6.25,10 C6.25,10.6903559 6.8096441,11.25 7.5,11.25 L17.5,11.25 C18.1903565,11.25 18.75,10.6903559 18.75,10 C18.75,9.3096441 18.1903565,8.75 17.5,8.75 L7.5,8.75 C6.8096441,8.75 6.25,9.3096441 6.25,10 Z" id="Icon"></path>
            </g>
        </g>
    </g>
</svg>