<?xml version="1.0" encoding="UTF-8"?>
<svg width="20px" height="20px" viewBox="0 0 20 20" version="1.1" xmlns="http://www.w3.org/2000/svg" xmlns:xlink="http://www.w3.org/1999/xlink">
    <title>ic_image</title>
    <g id="ic_image" stroke="none" stroke-width="1" fill="none" fill-rule="evenodd">
        <path d="M16,4 C17.1045695,4 18,4.8954305 18,6 L18,15 C18,16.1045695 17.1045695,17 16,17 L4,17 C2.8954305,17 2,16.1045695 2,15 L2,6 C2,4.8954305 2.8954305,4 4,4 L16,4 Z M16.0588235,4.92857143 L3.94117647,4.92857143 L3.82455535,4.93529916 C3.32721666,4.99306427 2.94117647,5.41573559 2.94117647,5.92857143 L2.94117647,5.92857143 L2.94117647,13.2857143 L3.11075362,13.0025055 C4.67751587,10.4055971 5.79746075,9.10714286 6.47058824,9.10714286 C7.51633987,9.10714286 7.945845,11.1964286 8.99159664,11.1964286 C10.0373483,11.1964286 11.9794585,7.01785714 13.0252101,7.01785714 C13.7223778,7.01785714 15.0669157,8.92142857 17.0588235,12.7285714 L17.0588235,12.7285714 L17.0588235,5.92857143 L17.0520958,5.8119503 C16.9943307,5.31461162 16.5716594,4.92857143 16.0588235,4.92857143 L16.0588235,4.92857143 Z M8.58823529,6.78571429 C9.10803271,6.78571429 9.52941176,7.20144988 9.52941176,7.71428571 C9.52941176,8.22712155 9.10803271,8.64285714 8.58823529,8.64285714 C8.06843788,8.64285714 7.64705882,8.22712155 7.64705882,7.71428571 C7.64705882,7.20144988 8.06843788,6.78571429 8.58823529,6.78571429 Z" id="Combined-Shape" fill="#414141"></path>
    </g>
</svg>