<?xml version="1.0" encoding="UTF-8"?>
<svg width="38px" height="39px" viewBox="0 0 38 39" version="1.1" xmlns="http://www.w3.org/2000/svg" xmlns:xlink="http://www.w3.org/1999/xlink">
    <title>Group 54</title>
    <g id="Symbol" stroke="none" stroke-width="1" fill="none" fill-rule="evenodd">
        <g id="Icon/icon_money" transform="translate(-1.000000, -1.000000)">
            <g id="Group-54" transform="translate(1.000000, 1.000000)">
                <ellipse id="Oval" stroke="#F2F2F2" fill="#448998" cx="19" cy="19.5" rx="18.5" ry="19"></ellipse>
                <g id="ic_money" transform="translate(8.000000, 13.000000)" fill="#FFFFFF">
                    <path d="M20.7272727,0 C21.0909091,0.933333333 21.6363636,1.55555556 22.3636364,1.86666667 C23.0909091,2.17777778 23.6363636,2.33333333 24,2.33333333 L24,11.2 C23.4702595,11.1510279 22.924805,11.3065835 22.3636364,11.6666667 C21.4702595,12.2399168 20.924805,13.0176946 20.7272727,14 L3.27272727,14 C3.15993263,13.2812757 2.79629627,12.6590535 2.18181818,12.1333333 C1.70538718,11.7257201 0.978114449,11.414609 0,11.2 L0,1.86666667 C1.04037127,1.79178824 1.767644,1.63623268 2.18181818,1.4 C2.85855309,1.01401046 3.22218945,0.547343795 3.27272727,0 L20.7272727,0 Z M12,2.69230769 C9.59003018,2.69230769 7.63636364,4.62092723 7.63636364,7 C7.63636364,9.37907277 9.59003018,11.3076923 12,11.3076923 C14.4099698,11.3076923 16.3636364,9.37907277 16.3636364,7 C16.3636364,4.62092723 14.4099698,2.69230769 12,2.69230769 Z" id="Combined-Shape"></path>
                </g>
            </g>
        </g>
    </g>
</svg>