<?xml version="1.0" encoding="UTF-8"?>
<svg width="40px" height="40px" viewBox="0 0 40 40" version="1.1" xmlns="http://www.w3.org/2000/svg" xmlns:xlink="http://www.w3.org/1999/xlink">
    <title>ic_ulok</title>
    <g id="ic_ulok" stroke="none" stroke-width="1" fill="none" fill-rule="evenodd">
        <circle id="Oval" stroke="#F2F2F2" fill="#D30216" cx="20" cy="20" r="19.5"></circle>
        <g id="Group-3" transform="translate(11.000000, 12.000000)">
            <path d="M14,0 L14,16 L2,16 C1.33333331,16 0,15.4000001 0,13 C0,10.5999999 0,3.33333325 0,0 L14,0 Z" id="Vector-1" stroke="#FFFFFF" stroke-width="2" stroke-dasharray="0,0"></path>
            <path d="M14,14.125 C14,15.625 14.9761905,16 15.2142857,16 L18,16 L18,5 L17,5 L14,5 C14,7.08333325 14,12.625 14,14.125 Z" id="Vector-2" stroke="#FFFFFF" stroke-width="2" stroke-dasharray="0,0" transform="translate(16.000000, 10.500000) scale(1, -1) rotate(-180.000000) translate(-16.000000, -10.500000) "></path>
            <path d="M3,3 L7,3 L7,7 L3,7 L3,3 Z" id="Rectangle-7" fill="#FFFFFF"></path>
            <path d="M3,8 L11,8 L11,10 L3,10 L3,8 Z" id="Rectangle-9" fill="#FFFFFF"></path>
            <path d="M3,11 L11,11 L11,13 L3,13 L3,11 Z" id="Rectangle-10" fill="#FFFFFF"></path>
            <path d="M8,4 L11,4 L11,6 L8,6 L8,4 Z" id="Rectangle-8" fill="#FFFFFF"></path>
        </g>
    </g>
</svg>